<svg xmlns="http://www.w3.org/2000/svg" viewBox="0 0 6.1 6.94"><defs><style>.cls-1{fill:#2ca39f;}</style></defs><title>Asset 1</title><g id="Layer_2" data-name="Layer 2"><g id="layer_1-2" data-name="layer 1"><path class="cls-1" d="M3,6.94l-.08,0a.17.17,0,0,1-.07-.13l0-3.32A.14.14,0,0,1,3,3.34l2.9-1.62a.16.16,0,0,1,.15,0,.14.14,0,0,1,.07.13l0,3.32A.13.13,0,0,1,6,5.3L3.07,6.92Zm.19-3.38,0,3L5.76,5.09l0-3Z"/><path class="cls-1" d="M3,6.94l-.08,0L.07,5.21A.16.16,0,0,1,0,5.08L.05,1.76a.13.13,0,0,1,.08-.12.12.12,0,0,1,.14,0l2.86,1.7a.17.17,0,0,1,.07.13L3.14,6.79a.16.16,0,0,1-.07.13ZM.29,5,2.85,6.54l0-3L.34,2Z"/><path class="cls-1" d="M3.05,3.62,3,3.6.12,1.89a.17.17,0,0,1-.07-.13.13.13,0,0,1,.08-.12L3,0a.14.14,0,0,1,.15,0L6,1.73a.14.14,0,0,1,.07.13A.13.13,0,0,1,6,2L3.12,3.6ZM.49,1.77,3.05,3.3,5.66,1.85,3.1.32Z"/></g></g></svg>