<svg style="fill: #f2f2f2;" id="Capa_1" enable-background="new 0 0 482.239 482.239" height="512" viewBox="0 0 482.239 482.239" width="512" xmlns="http://www.w3.org/2000/svg"><path d="m465.016 0h-344.456c-9.52 0-17.223 7.703-17.223 17.223v86.114h-86.114c-9.52 0-17.223 7.703-17.223 17.223v344.456c0 9.52 7.703 17.223 17.223 17.223h344.456c9.52 0 17.223-7.703 17.223-17.223v-86.114h86.114c9.52 0 17.223-7.703 17.223-17.223v-344.456c0-9.52-7.703-17.223-17.223-17.223zm-120.56 447.793h-310.01v-310.01h310.011v310.01zm103.337-103.337h-68.891v-223.896c0-9.52-7.703-17.223-17.223-17.223h-223.896v-68.891h310.011v310.01z"/></svg>